<?xml version="1.0" encoding="UTF-8"?>
<svg id="_レイヤー_2" data-name="レイヤー 2" xmlns="http://www.w3.org/2000/svg" xmlns:xlink="http://www.w3.org/1999/xlink" viewBox="0 0 137.45 137.23">
  <defs>
    <style>
      .cls-1 {
        fill: none;
      }

      .cls-2 {
        clip-path: url(#clippath);
      }

      .cls-3 {
        fill: #f5f4f3;
      }

      .cls-4 {
        fill: #c81d1d;
      }

      .cls-5 {
        fill: #1e2b68;
      }
    </style>
    <clipPath id="clippath">
      <circle class="cls-1" cx="68.72" cy="68.62" r="68.13"/>
    </clipPath>
  </defs>
  <g id="_レイヤー_1-2" data-name="レイヤー 1">
    <g class="cls-2">
      <g>
        <g>
          <rect class="cls-4" x=".03" y=".16" width="137.41" height="10.54"/>
          <rect class="cls-3" x=".03" y="10.7" width="137.41" height="10.54"/>
          <rect class="cls-4" x=".03" y="21.25" width="137.41" height="10.54"/>
          <rect class="cls-3" x=".03" y="31.79" width="137.41" height="10.54"/>
          <rect class="cls-4" x=".03" y="42.33" width="137.41" height="10.54"/>
          <rect class="cls-3" x=".03" y="52.88" width="137.41" height="10.54"/>
          <rect class="cls-4" x=".03" y="63.42" width="137.41" height="10.54"/>
          <rect class="cls-3" x=".03" y="73.97" width="137.41" height="10.54"/>
          <rect class="cls-4" x=".03" y="84.51" width="137.41" height="10.54"/>
          <rect class="cls-3" x=".03" y="95.05" width="137.41" height="10.54"/>
          <rect class="cls-4" x=".03" y="105.6" width="137.41" height="10.54"/>
          <rect class="cls-4" x=".03" y="126.69" width="137.41" height="10.54"/>
          <rect class="cls-3" x=".03" y="116.14" width="137.41" height="10.54"/>
        </g>
        <rect class="cls-5" width="68.66" height="69.65"/>
        <g>
          <g>
            <polygon class="cls-3" points="28.91 60.76 29.71 62.38 31.5 62.64 30.2 63.9 30.51 65.68 28.91 64.84 27.31 65.68 27.62 63.9 26.32 62.64 28.11 62.38 28.91 60.76"/>
            <polygon class="cls-3" points="39.75 60.76 40.55 62.38 42.34 62.64 41.05 63.9 41.35 65.68 39.75 64.84 38.15 65.68 38.46 63.9 37.17 62.64 38.95 62.38 39.75 60.76"/>
            <polygon class="cls-3" points="50.59 60.76 51.39 62.38 53.18 62.64 51.89 63.9 52.19 65.68 50.59 64.84 49 65.68 49.3 63.9 48.01 62.64 49.79 62.38 50.59 60.76"/>
            <polygon class="cls-3" points="61.44 60.76 62.24 62.38 64.02 62.64 62.73 63.9 63.03 65.68 61.44 64.84 59.84 65.68 60.14 63.9 58.85 62.64 60.64 62.38 61.44 60.76"/>
            <polygon class="cls-3" points="18.07 60.76 18.87 62.38 20.66 62.64 19.36 63.9 19.67 65.68 18.07 64.84 16.47 65.68 16.78 63.9 15.48 62.64 17.27 62.38 18.07 60.76"/>
            <polygon class="cls-3" points="7.23 60.76 8.03 62.38 9.81 62.64 8.52 63.9 8.83 65.68 7.23 64.84 5.63 65.68 5.93 63.9 4.64 62.64 6.43 62.38 7.23 60.76"/>
          </g>
          <g>
            <polygon class="cls-3" points="23.49 53.66 24.29 55.28 26.08 55.54 24.78 56.8 25.09 58.58 23.49 57.74 21.89 58.58 22.2 56.8 20.9 55.54 22.69 55.28 23.49 53.66"/>
            <polygon class="cls-3" points="34.33 53.66 35.13 55.28 36.92 55.54 35.63 56.8 35.93 58.58 34.33 57.74 32.73 58.58 33.04 56.8 31.75 55.54 33.53 55.28 34.33 53.66"/>
            <polygon class="cls-3" points="45.17 53.66 45.97 55.28 47.76 55.54 46.47 56.8 46.77 58.58 45.17 57.74 43.57 58.58 43.88 56.8 42.59 55.54 44.37 55.28 45.17 53.66"/>
            <polygon class="cls-3" points="56.01 53.66 56.81 55.28 58.6 55.54 57.31 56.8 57.61 58.58 56.01 57.74 54.42 58.58 54.72 56.8 53.43 55.54 55.22 55.28 56.01 53.66"/>
            <polygon class="cls-3" points="12.65 53.66 13.45 55.28 15.23 55.54 13.94 56.8 14.25 58.58 12.65 57.74 11.05 58.58 11.36 56.8 10.06 55.54 11.85 55.28 12.65 53.66"/>
          </g>
          <g>
            <polygon class="cls-3" points="28.91 46.56 29.71 48.18 31.5 48.44 30.2 49.7 30.51 51.48 28.91 50.64 27.31 51.48 27.62 49.7 26.32 48.44 28.11 48.18 28.91 46.56"/>
            <polygon class="cls-3" points="39.75 46.56 40.55 48.18 42.34 48.44 41.05 49.7 41.35 51.48 39.75 50.64 38.15 51.48 38.46 49.7 37.17 48.44 38.95 48.18 39.75 46.56"/>
            <polygon class="cls-3" points="50.59 46.56 51.39 48.18 53.18 48.44 51.89 49.7 52.19 51.48 50.59 50.64 49 51.48 49.3 49.7 48.01 48.44 49.79 48.18 50.59 46.56"/>
            <polygon class="cls-3" points="61.44 46.56 62.24 48.18 64.02 48.44 62.73 49.7 63.03 51.48 61.44 50.64 59.84 51.48 60.14 49.7 58.85 48.44 60.64 48.18 61.44 46.56"/>
            <polygon class="cls-3" points="18.07 46.56 18.87 48.18 20.66 48.44 19.36 49.7 19.67 51.48 18.07 50.64 16.47 51.48 16.78 49.7 15.48 48.44 17.27 48.18 18.07 46.56"/>
            <polygon class="cls-3" points="7.23 46.56 8.03 48.18 9.81 48.44 8.52 49.7 8.83 51.48 7.23 50.64 5.63 51.48 5.93 49.7 4.64 48.44 6.43 48.18 7.23 46.56"/>
          </g>
          <g>
            <polygon class="cls-3" points="23.49 39.47 24.29 41.08 26.08 41.34 24.78 42.6 25.09 44.39 23.49 43.54 21.89 44.39 22.2 42.6 20.9 41.34 22.69 41.08 23.49 39.47"/>
            <polygon class="cls-3" points="34.33 39.47 35.13 41.08 36.92 41.34 35.63 42.6 35.93 44.39 34.33 43.54 32.73 44.39 33.04 42.6 31.75 41.34 33.53 41.08 34.33 39.47"/>
            <polygon class="cls-3" points="45.17 39.47 45.97 41.08 47.76 41.34 46.47 42.6 46.77 44.39 45.17 43.54 43.57 44.39 43.88 42.6 42.59 41.34 44.37 41.08 45.17 39.47"/>
            <polygon class="cls-3" points="56.01 39.47 56.81 41.08 58.6 41.34 57.31 42.6 57.61 44.39 56.01 43.54 54.42 44.39 54.72 42.6 53.43 41.34 55.22 41.08 56.01 39.47"/>
            <polygon class="cls-3" points="12.65 39.47 13.45 41.08 15.23 41.34 13.94 42.6 14.25 44.39 12.65 43.54 11.05 44.39 11.36 42.6 10.06 41.34 11.85 41.08 12.65 39.47"/>
          </g>
          <g>
            <polygon class="cls-3" points="28.91 32.37 29.71 33.99 31.5 34.25 30.2 35.51 30.51 37.29 28.91 36.45 27.31 37.29 27.62 35.51 26.32 34.25 28.11 33.99 28.91 32.37"/>
            <polygon class="cls-3" points="39.75 32.37 40.55 33.99 42.34 34.25 41.05 35.51 41.35 37.29 39.75 36.45 38.15 37.29 38.46 35.51 37.17 34.25 38.95 33.99 39.75 32.37"/>
            <polygon class="cls-3" points="50.59 32.37 51.39 33.99 53.18 34.25 51.89 35.51 52.19 37.29 50.59 36.45 49 37.29 49.3 35.51 48.01 34.25 49.79 33.99 50.59 32.37"/>
            <polygon class="cls-3" points="61.44 32.37 62.24 33.99 64.02 34.25 62.73 35.51 63.03 37.29 61.44 36.45 59.84 37.29 60.14 35.51 58.85 34.25 60.64 33.99 61.44 32.37"/>
            <polygon class="cls-3" points="18.07 32.37 18.87 33.99 20.66 34.25 19.36 35.51 19.67 37.29 18.07 36.45 16.47 37.29 16.78 35.51 15.48 34.25 17.27 33.99 18.07 32.37"/>
            <polygon class="cls-3" points="7.23 32.37 8.03 33.99 9.81 34.25 8.52 35.51 8.83 37.29 7.23 36.45 5.63 37.29 5.93 35.51 4.64 34.25 6.43 33.99 7.23 32.37"/>
          </g>
          <g>
            <polygon class="cls-3" points="23.49 25.27 24.29 26.89 26.08 27.15 24.78 28.41 25.09 30.19 23.49 29.35 21.89 30.19 22.2 28.41 20.9 27.15 22.69 26.89 23.49 25.27"/>
            <polygon class="cls-3" points="34.33 25.27 35.13 26.89 36.92 27.15 35.63 28.41 35.93 30.19 34.33 29.35 32.73 30.19 33.04 28.41 31.75 27.15 33.53 26.89 34.33 25.27"/>
            <polygon class="cls-3" points="45.17 25.27 45.97 26.89 47.76 27.15 46.47 28.41 46.77 30.19 45.17 29.35 43.57 30.19 43.88 28.41 42.59 27.15 44.37 26.89 45.17 25.27"/>
            <polygon class="cls-3" points="56.01 25.27 56.81 26.89 58.6 27.15 57.31 28.41 57.61 30.19 56.01 29.35 54.42 30.19 54.72 28.41 53.43 27.15 55.22 26.89 56.01 25.27"/>
            <polygon class="cls-3" points="12.65 25.27 13.45 26.89 15.23 27.15 13.94 28.41 14.25 30.19 12.65 29.35 11.05 30.19 11.36 28.41 10.06 27.15 11.85 26.89 12.65 25.27"/>
          </g>
          <g>
            <polygon class="cls-3" points="28.91 18.17 29.71 19.79 31.5 20.05 30.2 21.31 30.51 23.09 28.91 22.25 27.31 23.09 27.62 21.31 26.32 20.05 28.11 19.79 28.91 18.17"/>
            <polygon class="cls-3" points="39.75 18.17 40.55 19.79 42.34 20.05 41.05 21.31 41.35 23.09 39.75 22.25 38.15 23.09 38.46 21.31 37.17 20.05 38.95 19.79 39.75 18.17"/>
            <polygon class="cls-3" points="50.59 18.17 51.39 19.79 53.18 20.05 51.89 21.31 52.19 23.09 50.59 22.25 49 23.09 49.3 21.31 48.01 20.05 49.79 19.79 50.59 18.17"/>
            <polygon class="cls-3" points="61.44 18.17 62.24 19.79 64.02 20.05 62.73 21.31 63.03 23.09 61.44 22.25 59.84 23.09 60.14 21.31 58.85 20.05 60.64 19.79 61.44 18.17"/>
            <polygon class="cls-3" points="18.07 18.17 18.87 19.79 20.66 20.05 19.36 21.31 19.67 23.09 18.07 22.25 16.47 23.09 16.78 21.31 15.48 20.05 17.27 19.79 18.07 18.17"/>
            <polygon class="cls-3" points="7.23 18.17 8.03 19.79 9.81 20.05 8.52 21.31 8.83 23.09 7.23 22.25 5.63 23.09 5.93 21.31 4.64 20.05 6.43 19.79 7.23 18.17"/>
          </g>
          <g>
            <polygon class="cls-3" points="28.91 3.98 29.71 5.59 31.5 5.85 30.2 7.11 30.51 8.89 28.91 8.05 27.31 8.89 27.62 7.11 26.32 5.85 28.11 5.59 28.91 3.98"/>
            <polygon class="cls-3" points="39.75 3.98 40.55 5.59 42.34 5.85 41.05 7.11 41.35 8.89 39.75 8.05 38.15 8.89 38.46 7.11 37.17 5.85 38.95 5.59 39.75 3.98"/>
            <polygon class="cls-3" points="50.59 3.98 51.39 5.59 53.18 5.85 51.89 7.11 52.19 8.89 50.59 8.05 49 8.89 49.3 7.11 48.01 5.85 49.79 5.59 50.59 3.98"/>
            <polygon class="cls-3" points="61.44 3.98 62.24 5.59 64.02 5.85 62.73 7.11 63.03 8.89 61.44 8.05 59.84 8.89 60.14 7.11 58.85 5.85 60.64 5.59 61.44 3.98"/>
            <polygon class="cls-3" points="18.07 3.98 18.87 5.59 20.66 5.85 19.36 7.11 19.67 8.89 18.07 8.05 16.47 8.89 16.78 7.11 15.48 5.85 17.27 5.59 18.07 3.98"/>
            <polygon class="cls-3" points="7.23 3.98 8.03 5.59 9.81 5.85 8.52 7.11 8.83 8.89 7.23 8.05 5.63 8.89 5.93 7.11 4.64 5.85 6.43 5.59 7.23 3.98"/>
          </g>
          <g>
            <polygon class="cls-3" points="23.49 11.07 24.29 12.69 26.08 12.95 24.78 14.21 25.09 15.99 23.49 15.15 21.89 15.99 22.2 14.21 20.9 12.95 22.69 12.69 23.49 11.07"/>
            <polygon class="cls-3" points="34.33 11.07 35.13 12.69 36.92 12.95 35.63 14.21 35.93 15.99 34.33 15.15 32.73 15.99 33.04 14.21 31.75 12.95 33.53 12.69 34.33 11.07"/>
            <polygon class="cls-3" points="45.17 11.07 45.97 12.69 47.76 12.95 46.47 14.21 46.77 15.99 45.17 15.15 43.57 15.99 43.88 14.21 42.59 12.95 44.37 12.69 45.17 11.07"/>
            <polygon class="cls-3" points="56.01 11.07 56.81 12.69 58.6 12.95 57.31 14.21 57.61 15.99 56.01 15.15 54.42 15.99 54.72 14.21 53.43 12.95 55.22 12.69 56.01 11.07"/>
            <polygon class="cls-3" points="12.65 11.07 13.45 12.69 15.23 12.95 13.94 14.21 14.25 15.99 12.65 15.15 11.05 15.99 11.36 14.21 10.06 12.95 11.85 12.69 12.65 11.07"/>
          </g>
        </g>
      </g>
    </g>
  </g>
</svg>