<?xml version="1.0" encoding="UTF-8"?>
<svg id="_レイヤー_2" data-name="レイヤー 2" xmlns="http://www.w3.org/2000/svg" xmlns:xlink="http://www.w3.org/1999/xlink" viewBox="0 0 132.7 132.7">
  <defs>
    <style>
      .cls-1 {
        fill: none;
      }

      .cls-2 {
        stroke-width: .16px;
      }

      .cls-2, .cls-3, .cls-4 {
        fill: #e5d81f;
      }

      .cls-2, .cls-5, .cls-6, .cls-4 {
        stroke: #221714;
        stroke-miterlimit: 10;
      }

      .cls-7 {
        clip-path: url(#clippath);
      }

      .cls-8, .cls-5 {
        fill: #c9151d;
      }

      .cls-9 {
        fill: #0a4f99;
      }

      .cls-10 {
        fill: #0b8141;
      }

      .cls-5, .cls-6, .cls-4 {
        stroke-width: .17px;
      }

      .cls-6 {
        fill: #fff;
      }
    </style>
    <clipPath id="clippath">
      <circle class="cls-1" cx="66.35" cy="66.35" r="66.35" transform="translate(-13.14 16.5) rotate(-12.91)"/>
    </clipPath>
  </defs>
  <g id="_レイヤー_1-2" data-name="レイヤー 1">
    <g class="cls-7">
      <g>
        <rect class="cls-8" x="54.88" y="0" width="117.3" height="132.69"/>
        <rect class="cls-10" x="-26.61" y="0" width="82.49" height="132.69"/>
        <g>
          <g>
            <g>
              <path class="cls-4" d="M46.2,85.21s-7.07-.2-10.52-.75-5.02-.68-5.02-.68c0,0-.78,1.12-.62,1.14,.16,.03,1.32,1.67,1.32,1.67,0,0,3.51,.66,8.8,1.18,5.29,.52,9.71,.47,9.71,.47l-3.66-3.03Z"/>
              <path class="cls-6" d="M45,85.75h0s-4.27-.04-7.58-.39c-3.3-.35-6.83-.96-6.87-.97-.34-.06-.57-.38-.51-.72,.06-.34,.39-.56,.72-.51,.03,0,3.53,.61,6.79,.96,3.25,.35,7.41,.39,7.45,.39,.34,0,.62,.28,.62,.63,0,.34-.28,.62-.62,.62Z"/>
              <path class="cls-6" d="M49.04,88.71c-3.57,0-7.92-.29-10.41-.53-3.61-.36-7.05-.91-7.08-.91-.34-.05-.57-.37-.51-.71,.05-.34,.37-.57,.71-.51,.03,0,3.43,.55,7.01,.9,3.53,.35,10.04,.71,13.43,.42,.34-.04,.64,.22,.67,.57,.03,.34-.22,.64-.57,.67-.93,.08-2.04,.11-3.24,.11Z"/>
            </g>
            <g>
              <path class="cls-4" d="M37.49,73.01l-12.69-3.85-.59-.58,.32-2.63s10.54,3.46,10.74,3.53c.19,.07,2.22,.56,2.22,.56v2.97Z"/>
              <path class="cls-6" d="M37.69,70.67c-.05,0-.1,0-.15-.02-.2-.05-4.85-1.23-7.11-1.94-2.25-.7-5.98-1.93-6.02-1.94-.33-.11-.5-.46-.4-.78,.11-.33,.46-.51,.78-.4,.04,.01,3.76,1.24,6,1.94,2.23,.7,7,1.91,7.05,1.92,.33,.08,.53,.42,.45,.76-.07,.28-.32,.47-.6,.47Z"/>
              <path class="cls-6" d="M37.49,73.35s-.08,0-.12-.01c-1.32-.26-4.93-1.07-7.64-1.93-2.63-.84-5.76-2.15-5.79-2.16-.32-.13-.47-.5-.33-.81,.13-.32,.5-.47,.81-.33,.03,.01,3.11,1.3,5.69,2.12,2.63,.84,6.25,1.66,7.5,1.9,.34,.07,.56,.39,.49,.73-.06,.3-.32,.5-.61,.5Z"/>
            </g>
            <g>
              <polygon class="cls-4" points="33.23 59.35 27.11 53.45 29.1 44.31 37.62 43.91 37.62 55.88 33.23 59.35"/>
              <path class="cls-6" d="M32.85,59.49c-.18,0-.37-.08-.49-.24-2.19-2.77-5.7-5.26-5.73-5.29-.28-.2-.35-.59-.15-.87,.2-.28,.59-.35,.87-.15,.15,.11,3.69,2.62,5.99,5.53,.21,.27,.17,.66-.1,.87-.11,.09-.25,.13-.38,.13Z"/>
              <path class="cls-6" d="M28.84,45.01c-.33,0-.6-.26-.62-.59-.02-.34,.24-.64,.59-.65l8.16-.45c.34-.02,.63,.24,.65,.59,.02,.34-.24,.64-.59,.65l-8.16,.45s-.02,0-.03,0Z"/>
              <path class="cls-6" d="M33.47,48.03c-.32,0-.6-.25-.62-.58-.02-.34,.23-.64,.57-.67l3.67-.27c.34-.02,.64,.23,.67,.57,.02,.34-.23,.64-.57,.67l-3.67,.27s-.03,0-.05,0Z"/>
            </g>
            <g>
              <polygon class="cls-4" points="84.36 53.46 83.01 50.11 74.78 52.28 75.07 56.28 84.36 53.46"/>
              <path class="cls-6" d="M75.11,56.94c-.27,0-.51-.17-.59-.44-.1-.33,.08-.68,.41-.78l9.31-2.84c.33-.1,.68,.09,.78,.41,.1,.33-.08,.68-.41,.78l-9.31,2.84c-.06,.02-.12,.03-.18,.03Z"/>
              <path class="cls-6" d="M74.74,52.91c-.27,0-.51-.17-.59-.44-.1-.33,.08-.68,.41-.78l8.56-2.62c.33-.1,.68,.08,.78,.41,.1,.33-.08,.68-.41,.78l-8.56,2.62c-.06,.02-.12,.03-.18,.03Z"/>
            </g>
            <path class="cls-6" d="M55.87,101.71c-19.73,0-35.78-15.97-35.78-35.6S36.15,30.5,55.87,30.5s35.78,15.97,35.78,35.6-16.05,35.6-35.78,35.6Zm0-66.29c-17.02,0-30.86,13.77-30.86,30.69s13.84,30.69,30.86,30.69,30.86-13.77,30.86-30.69-13.84-30.69-30.86-30.69Z"/>
            <path class="cls-4" d="M55.87,100.54c-19.08,0-34.6-15.44-34.6-34.43S36.79,31.68,55.87,31.68s34.6,15.44,34.6,34.43-15.52,34.43-34.6,34.43Zm0-66.29c-17.66,0-32.03,14.29-32.03,31.86s14.37,31.86,32.03,31.86,32.03-14.29,32.03-31.86-14.37-31.86-32.03-31.86Z"/>
            <g>
              <polygon class="cls-4" points="74.93 68.1 84.32 65.25 88.99 67.83 75.09 71.91 74.93 68.1"/>
              <path class="cls-6" d="M75.11,68.73c-.27,0-.51-.17-.59-.44-.1-.33,.08-.68,.41-.78l8.9-2.74c.33-.1,.68,.08,.78,.41,.1,.33-.08,.68-.41,.78l-8.9,2.74c-.06,.02-.12,.03-.18,.03Z"/>
              <path class="cls-6" d="M75.11,72.67c-.27,0-.52-.18-.6-.45-.1-.33,.09-.67,.42-.77l13.98-4.08c.33-.09,.67,.09,.77,.42,.1,.33-.09,.67-.42,.77l-13.98,4.08c-.06,.02-.12,.02-.17,.02Z"/>
            </g>
            <g>
              <path class="cls-4" d="M67.12,85.06c6.62,0,11.71-1.28,11.71-1.28l2.36,2.66s-3.81,.89-7.9,1.18c-4.09,.3-10.26,.37-10.26,.37l4.09-2.93Z"/>
              <path class="cls-6" d="M68.17,85.7c-.36,0-.58,0-.6,0-.34,0-.61-.29-.61-.64,0-.34,.28-.61,.62-.61,0,0,0,0,.01,0,.02,0,2.3,.05,5.02-.2,2.73-.25,5.15-.69,5.18-.69,.34-.06,.66,.16,.72,.5,.06,.34-.16,.66-.5,.72-.02,0-2.5,.46-5.29,.71-1.97,.18-3.69,.2-4.55,.2Z"/>
              <path class="cls-6" d="M62.61,88.64c-.34,0-.62-.28-.62-.62s.28-.62,.62-.62c.05,0,4.93,0,9.15-.29,4.2-.29,8.31-1.02,8.35-1.03,.34-.06,.66,.16,.72,.5,.06,.34-.16,.66-.5,.72-.04,0-4.21,.76-8.49,1.05-4.26,.29-9.19,.3-9.24,.3Z"/>
            </g>
            <g>
              <path class="cls-4" d="M91.78,65.96v3.32l-10.53-4.4-6.33-2.99v-3.4s14.48,5.74,14.79,5.93c.31,.19,2.07,1.53,2.07,1.53Z"/>
              <path class="cls-6" d="M91.78,66.28c-.14,0-.35-.05-.55-.19-1.01-.7-3.7-1.98-6.47-3.17-3.25-1.39-9.81-3.94-9.87-3.97-.32-.12-.48-.48-.35-.8,.12-.32,.48-.48,.8-.35,.07,.03,6.64,2.58,9.91,3.98,3.67,1.57,5.84,2.58,6.8,3.42,.26,.22,.34,.6,.12,.86-.12,.14-.22,.21-.39,.21Z"/>
              <path class="cls-6" d="M91.65,70.14c-.13,0-.27-.04-.38-.13-.01,0-1.1-.86-2.73-1.63-1.65-.78-6.52-2.92-8.21-3.58-1.66-.65-5.47-2.28-5.63-2.34-.32-.14-.46-.5-.33-.82,.14-.32,.5-.46,.82-.33,.04,.02,3.94,1.69,5.59,2.33,1.71,.66,6.62,2.83,8.29,3.61,1.77,.83,2.92,1.74,2.97,1.77,.27,.21,.32,.6,.1,.87-.12,.16-.3,.24-.49,.24Z"/>
            </g>
            <g>
              <path class="cls-4" d="M75.01,45.31s3.52,.42,7.58,1.55c2.86,.8,4.23,1.41,4.23,1.41l1.21,2.96s-3.1-1.25-7.12-2.2c-4.02-.95-6.07-1.17-6.07-1.17l-.91-1.39,1.07-1.15Z"/>
              <path class="cls-6" d="M86.83,48.49c-.1,0-.2-.02-.3-.08-.44-.24-2.93-1.18-5.55-1.83-2.6-.64-6.29-1.14-6.32-1.15-.34-.05-.58-.36-.53-.7,.05-.34,.36-.58,.7-.53,.15,.02,3.79,.52,6.46,1.17,2.71,.67,5.29,1.63,5.85,1.94,.3,.16,.41,.54,.25,.84-.11,.21-.33,.32-.55,.32Z"/>
              <path class="cls-6" d="M88.23,52.58c-.11,0-.22-.03-.32-.09-1.17-.69-3.62-1.48-7.28-2.36-3.58-.85-5.78-1.25-5.8-1.25-.34-.06-.56-.38-.5-.72,.06-.34,.39-.56,.72-.5,.02,0,2.25,.41,5.87,1.27,3.84,.92,6.33,1.73,7.62,2.5,.3,.17,.39,.56,.22,.85-.12,.2-.32,.31-.54,.31Z"/>
            </g>
            <g>
              <path class="cls-4" d="M75.24,72.9s4.38,3.35,5.77,4.53c1.39,1.18,5.75,6.62,5.75,6.62l-3.52,5.06s-4.85-5.03-6.28-6.34c-1.43-1.3-4.6-3.52-4.6-3.52l2.88-6.35Z"/>
              <path class="cls-6" d="M86.9,84.39c-.17,0-.34-.07-.46-.21-.03-.04-3.03-3.55-5.37-5.81-2.12-2.04-6.27-5.02-6.31-5.05-.28-.19-.35-.58-.16-.86,.19-.28,.58-.35,.86-.16,.18,.12,4.35,3.01,6.49,5.2,2.11,2.15,5.38,5.81,5.41,5.85,.23,.26,.21,.65-.05,.88-.12,.11-.27,.16-.41,.16Z"/>
              <path class="cls-6" d="M82.9,89.73c-.17,0-.34-.07-.47-.21-.03-.04-3.32-3.75-4.91-5.3-1.57-1.54-5.46-4.43-5.5-4.46-.27-.2-.33-.59-.13-.87,.2-.27,.59-.33,.87-.13,.16,.12,3.98,2.99,5.62,4.57,2.15,2.08,4.83,5.21,4.97,5.37,.23,.26,.2,.65-.05,.88-.12,.1-.26,.16-.41,.16Z"/>
            </g>
            <rect class="cls-4" x="53.66" y="30.21" width="4.58" height="13.58"/>
            <path class="cls-6" d="M58.24,44.56c-.34,0-.62-.28-.62-.62v-13.48c0-.34,.28-.62,.62-.62s.62,.28,.62,.62v13.48c0,.34-.28,.62-.62,.62Z"/>
            <path class="cls-6" d="M53.66,44.56c-.34,0-.62-.28-.62-.62v-13.48c0-.34,.28-.62,.62-.62s.62,.28,.62,.62v13.48c0,.34-.28,.62-.62,.62Z"/>
            <g>
              <polygon class="cls-4" points="37.84 74.95 24.64 84.13 26.32 86.55 39.76 78.04 37.84 74.95"/>
              <path class="cls-6" d="M24.64,84.13c-.2,0-.4-.1-.52-.28-.19-.29-.1-.67,.18-.86l12.67-8.22c.29-.19,.67-.11,.86,.18,.19,.29,.1,.67-.18,.86l-12.67,8.22c-.1,.07-.22,.1-.34,.1Z"/>
              <path class="cls-6" d="M26.57,87.37c-.2,0-.4-.1-.52-.28-.19-.29-.11-.67,.18-.86l13.39-8.71c.29-.19,.67-.11,.86,.18,.19,.29,.11,.67-.18,.86l-13.39,8.71c-.11,.07-.22,.1-.34,.1Z"/>
            </g>
            <g>
              <polygon class="cls-2" points="27.28 44 24.65 48.76 36.46 55.73 37.68 49.67 27.28 44"/>
              <path class="cls-6" d="M37.68,50.61c-.13,0-.25-.04-.36-.12-4.36-3.13-9.97-5.96-10.02-5.99-.31-.15-.43-.53-.28-.83,.15-.31,.53-.43,.83-.28,.06,.03,5.74,2.9,10.19,6.09,.28,.2,.34,.59,.14,.87-.12,.17-.31,.26-.51,.26Z"/>
              <path class="cls-6" d="M37.14,56.92c-.12,0-.24-.04-.35-.11-.04-.02-3.78-2.57-6.15-3.91-2.39-1.35-6.05-3.23-6.09-3.25-.31-.16-.43-.53-.27-.84,.16-.3,.53-.43,.84-.27,.04,.02,3.72,1.91,6.13,3.27,2.42,1.37,6.09,3.86,6.24,3.97,.28,.19,.36,.58,.16,.86-.12,.18-.31,.27-.51,.27Z"/>
            </g>
            <g>
              <path class="cls-4" d="M36.95,56.95l-.14,3.64-13.94,5.89-3.06,1.54v-3.56s8.2-3.81,10.56-4.77c2.36-.96,6.59-2.74,6.59-2.74Z"/>
              <path class="cls-6" d="M20.04,65.22c-.22,0-.43-.12-.54-.32-.17-.3-.06-.68,.24-.84,.03-.02,3.06-1.69,6.56-3.18,3.48-1.48,10.98-4.55,11.05-4.58,.31-.13,.68,.02,.81,.34,.13,.32-.02,.68-.34,.81-.07,.03-7.56,3.1-11.04,4.58-3.45,1.47-6.42,3.11-6.45,3.13-.09,.05-.2,.08-.3,.08Z"/>
              <path class="cls-6" d="M20.04,68.91c-.22,0-.43-.11-.54-.31-.17-.3-.07-.68,.23-.85,.03-.02,3.34-1.9,6.81-3.45,3.45-1.54,10.01-4.2,10.08-4.23,.31-.13,.68,.02,.81,.34,.13,.32-.02,.68-.34,.81-.07,.03-6.6,2.68-10.04,4.21-3.41,1.53-6.67,3.37-6.7,3.39-.1,.06-.2,.08-.31,.08Z"/>
            </g>
            <g>
              <path class="cls-6" d="M55.58,90.08c-1.78-.03-6.78-.46-11.18-4.06-5.81-4.78-7.91-12.43-8-12.75l-.03-.12v-30.33h39v30.33l-.03,.12c-.09,.32-2.18,7.98-7.99,12.75-4.6,3.77-9.86,4.06-11.37,4.06h-.4Z"/>
              <path class="cls-5" d="M55.81,43.79h-18.46v29.22s2.04,7.62,7.67,12.25c4.73,3.88,10.24,3.84,10.78,3.84,.02,0,.04-.03,.07-.04,.02,.02,.05,.04,.07,.04,.54,0,6.05,.04,10.78-3.84,5.63-4.63,7.67-12.25,7.67-12.25v-29.22h-18.59Z"/>
              <g>
                <g>
                  <path class="cls-3" d="M57.79,51.05v-1.86h-4.1v1.86h.62c.04-.81,.67-1.46,1.43-1.46s1.39,.65,1.43,1.46h.62Z"/>
                  <path class="cls-3" d="M57,51.05c-.04-.72-.59-1.29-1.26-1.29s-1.22,.57-1.26,1.29h.32c.04-.52,.44-.93,.94-.93s.9,.41,.94,.93h.32Z"/>
                  <path class="cls-3" d="M55.74,50.29c-.4,0-.73,.33-.77,.76h1.53c-.04-.42-.37-.76-.77-.76Z"/>
                  <polygon class="cls-3" points="57.88 51.22 53.6 51.22 53.51 51.22 52.66 51.22 52.66 52.06 58.82 52.06 58.82 51.22 57.96 51.22 57.88 51.22"/>
                  <polygon class="cls-3" points="54.08 47.78 54.61 47.78 54.61 46.49 54.34 46.28 54.08 46.49 54.08 47.78"/>
                  <polygon class="cls-3" points="54.78 47.78 55.3 47.78 55.3 46.14 55.13 46 55.13 46.21 54.78 46.49 54.78 47.78"/>
                  <path class="cls-3" d="M55.48,47.78h.52v-1.64l-.26-.21-.26,.21v1.64Zm.18-1.27h.17v.77h-.17v-.77Z"/>
                  <polygon class="cls-3" points="56.17 46.14 56.17 47.78 56.7 47.78 56.7 46.49 56.35 46.21 56.35 46 56.17 46.14"/>
                  <polygon class="cls-3" points="56.87 47.78 57.39 47.78 57.39 46.49 57.13 46.28 56.87 46.49 56.87 47.78"/>
                  <polygon class="cls-3" points="54 46.34 54 46.34 54.08 46.27 54.26 46.13 54.26 45.88 54.26 45.79 54.26 45.71 54.26 45.6 53.73 45.6 53.73 46.13 53.91 46.27 54 46.34"/>
                  <polygon class="cls-3" points="54.69 46.34 54.78 46.27 54.95 46.13 54.95 45.88 54.95 45.86 54.95 45.79 54.95 45.71 54.95 45.6 54.43 45.6 54.43 45.71 54.43 45.79 54.43 45.88 54.43 46.13 54.61 46.27 54.69 46.34"/>
                  <polygon class="cls-3" points="56.78 46.34 56.87 46.27 57.04 46.13 57.04 45.88 57.04 45.79 57.04 45.71 57.04 45.6 56.52 45.6 56.52 45.71 56.52 45.79 56.52 45.86 56.52 45.88 56.52 46.13 56.7 46.27 56.78 46.34"/>
                  <polygon class="cls-3" points="57.48 46.34 57.48 46.34 57.57 46.27 57.74 46.13 57.74 45.6 57.22 45.6 57.22 45.71 57.22 45.79 57.22 45.88 57.22 46.13 57.39 46.27 57.48 46.34"/>
                  <polygon class="cls-3" points="55.26 45.88 55.3 45.92 55.39 45.99 55.48 45.92 55.52 45.88 55.63 45.79 55.65 45.78 55.65 45.71 55.65 45.25 55.13 45.25 55.13 45.43 55.13 45.71 55.13 45.78 55.15 45.79 55.26 45.88"/>
                  <polygon class="cls-3" points="55.95 45.88 56 45.92 56.09 45.99 56.09 45.99 56.17 45.92 56.22 45.88 56.33 45.79 56.35 45.78 56.35 45.71 56.35 45.43 56.35 45.25 55.82 45.25 55.82 45.71 55.82 45.78 55.85 45.79 55.95 45.88"/>
                  <polygon class="cls-3" points="58.46 47.95 57.57 47.95 57.48 47.95 57.39 47.95 56.87 47.95 56.78 47.95 56.7 47.95 56.17 47.95 56.09 47.95 56 47.95 55.48 47.95 55.39 47.95 55.3 47.95 54.78 47.95 54.69 47.95 54.61 47.95 54.08 47.95 54 47.95 53.91 47.95 53.02 47.95 53.02 48.4 58.46 48.4 58.46 47.95"/>
                  <polygon class="cls-3" points="53.6 49.01 57.88 49.01 57.96 49.01 58.46 49.01 58.46 48.57 53.02 48.57 53.02 49.01 53.51 49.01 53.6 49.01"/>
                  <path class="cls-3" d="M72.58,51.05v-1.86h-4.1v1.86h.62c.04-.81,.67-1.46,1.43-1.46s1.39,.65,1.43,1.46h.62Z"/>
                  <path class="cls-3" d="M71.79,51.05c-.04-.72-.59-1.29-1.26-1.29s-1.22,.57-1.26,1.29h.32c.04-.52,.44-.93,.94-.93s.9,.41,.94,.93h.32Z"/>
                  <path class="cls-3" d="M70.53,50.29c-.4,0-.73,.33-.77,.76h1.53c-.04-.42-.37-.76-.77-.76Z"/>
                  <polygon class="cls-3" points="72.75 51.22 72.67 51.22 68.39 51.22 68.3 51.22 67.45 51.22 67.45 52.06 73.61 52.06 73.61 51.22 72.75 51.22"/>
                  <polygon class="cls-3" points="68.87 47.78 69.4 47.78 69.4 46.49 69.13 46.28 68.87 46.49 68.87 47.78"/>
                  <polygon class="cls-3" points="69.57 47.78 70.09 47.78 70.09 46.14 69.92 46 69.92 46.21 69.57 46.49 69.57 47.78"/>
                  <path class="cls-3" d="M70.27,47.78h.52v-1.64l-.26-.21-.26,.21v1.64Zm.18-1.27h.17v.77h-.17v-.77Z"/>
                  <polygon class="cls-3" points="70.96 46.14 70.96 47.78 71.49 47.78 71.49 46.49 71.14 46.21 71.14 46 70.96 46.14"/>
                  <polygon class="cls-3" points="71.66 47.78 72.18 47.78 72.18 46.49 71.92 46.28 71.66 46.49 71.66 47.78"/>
                  <polygon class="cls-3" points="68.79 46.34 68.79 46.34 68.87 46.27 69.05 46.13 69.05 45.88 69.05 45.79 69.05 45.71 69.05 45.6 68.52 45.6 68.52 46.13 68.7 46.27 68.79 46.34"/>
                  <polygon class="cls-3" points="69.48 46.34 69.57 46.27 69.75 46.13 69.75 45.88 69.75 45.86 69.75 45.79 69.75 45.71 69.75 45.6 69.22 45.6 69.22 45.71 69.22 45.79 69.22 45.88 69.22 46.13 69.4 46.27 69.48 46.34"/>
                  <polygon class="cls-3" points="71.57 46.34 71.66 46.27 71.83 46.13 71.83 45.88 71.83 45.79 71.83 45.71 71.83 45.6 71.31 45.6 71.31 45.71 71.31 45.79 71.31 45.86 71.31 45.88 71.31 46.13 71.49 46.27 71.57 46.34"/>
                  <polygon class="cls-3" points="72.27 46.34 72.27 46.34 72.36 46.27 72.53 46.13 72.53 45.6 72.01 45.6 72.01 45.71 72.01 45.79 72.01 45.88 72.01 46.13 72.18 46.27 72.27 46.34"/>
                  <polygon class="cls-3" points="70.05 45.88 70.09 45.92 70.18 45.99 70.18 45.99 70.27 45.92 70.31 45.88 70.42 45.79 70.44 45.78 70.44 45.71 70.44 45.25 69.92 45.25 69.92 45.43 69.92 45.71 69.92 45.78 69.94 45.79 70.05 45.88"/>
                  <polygon class="cls-3" points="70.74 45.88 70.79 45.92 70.88 45.99 70.88 45.99 70.96 45.92 71.01 45.88 71.12 45.79 71.14 45.78 71.14 45.71 71.14 45.43 71.14 45.25 70.61 45.25 70.61 45.71 70.61 45.78 70.64 45.79 70.74 45.88"/>
                  <polygon class="cls-3" points="73.25 47.95 72.36 47.95 72.27 47.95 72.18 47.95 71.66 47.95 71.57 47.95 71.49 47.95 70.96 47.95 70.88 47.95 70.79 47.95 70.27 47.95 70.18 47.95 70.09 47.95 69.57 47.95 69.48 47.95 69.4 47.95 68.87 47.95 68.79 47.95 68.7 47.95 67.81 47.95 67.81 48.4 73.25 48.4 73.25 47.95"/>
                  <polygon class="cls-3" points="68.39 49.01 72.67 49.01 72.75 49.01 73.25 49.01 73.25 48.57 67.81 48.57 67.81 49.01 68.3 49.01 68.39 49.01"/>
                  <path class="cls-3" d="M72.58,65.08v-1.86h-4.1v1.86h.62c.04-.81,.67-1.46,1.43-1.46s1.39,.65,1.43,1.46h.62Z"/>
                  <path class="cls-3" d="M71.79,65.08c-.04-.72-.59-1.29-1.26-1.29s-1.22,.57-1.26,1.29h.32c.04-.52,.44-.93,.94-.93s.9,.41,.94,.93h.32Z"/>
                  <path class="cls-3" d="M70.53,64.32c-.4,0-.73,.33-.77,.76h1.53c-.04-.42-.37-.76-.77-.76Z"/>
                  <polygon class="cls-3" points="72.67 65.25 68.39 65.25 68.3 65.25 67.45 65.25 67.45 66.09 73.61 66.09 73.61 65.25 72.75 65.25 72.67 65.25"/>
                  <polygon class="cls-3" points="68.87 60.52 68.87 61.81 69.4 61.81 69.4 60.52 69.13 60.31 68.87 60.52"/>
                  <polygon class="cls-3" points="69.92 60.24 69.57 60.52 69.57 61.81 70.09 61.81 70.09 60.17 69.92 60.03 69.92 60.24"/>
                  <path class="cls-3" d="M70.27,60.17v1.64h.52v-1.64l-.26-.21-.26,.21Zm.35,1.15h-.17v-.77h.17v.77Z"/>
                  <polygon class="cls-3" points="71.14 60.03 70.96 60.17 70.96 61.81 71.49 61.81 71.49 60.52 71.14 60.24 71.14 60.03"/>
                  <polygon class="cls-3" points="71.66 60.52 71.66 61.81 72.18 61.81 72.18 60.52 71.92 60.31 71.66 60.52"/>
                  <polygon class="cls-3" points="68.52 60.15 68.7 60.3 68.79 60.36 68.79 60.36 68.87 60.3 69.05 60.15 69.05 59.91 69.05 59.82 69.05 59.74 69.05 59.63 68.52 59.63 68.52 60.15"/>
                  <polygon class="cls-3" points="69.22 59.74 69.22 59.82 69.22 59.91 69.22 60.15 69.4 60.3 69.48 60.36 69.57 60.3 69.75 60.15 69.75 59.91 69.75 59.89 69.75 59.82 69.75 59.74 69.75 59.63 69.22 59.63 69.22 59.74"/>
                  <polygon class="cls-3" points="71.31 59.74 71.31 59.82 71.31 59.89 71.31 59.91 71.31 60.15 71.49 60.3 71.57 60.36 71.66 60.3 71.83 60.15 71.83 59.91 71.83 59.82 71.83 59.74 71.83 59.63 71.31 59.63 71.31 59.74"/>
                  <polygon class="cls-3" points="72.27 60.36 72.27 60.36 72.36 60.3 72.53 60.15 72.53 59.63 72.01 59.63 72.01 59.74 72.01 59.82 72.01 59.91 72.01 60.15 72.18 60.3 72.27 60.36"/>
                  <polygon class="cls-3" points="69.92 59.46 69.92 59.74 69.92 59.8 69.94 59.82 70.05 59.91 70.09 59.95 70.18 60.01 70.18 60.01 70.27 59.95 70.31 59.91 70.42 59.82 70.44 59.8 70.44 59.74 70.44 59.28 69.92 59.28 69.92 59.46"/>
                  <polygon class="cls-3" points="70.61 59.74 70.61 59.8 70.64 59.82 70.74 59.91 70.79 59.95 70.88 60.01 70.88 60.01 70.96 59.95 71.01 59.91 71.12 59.82 71.14 59.8 71.14 59.74 71.14 59.46 71.14 59.28 70.61 59.28 70.61 59.74"/>
                  <polygon class="cls-3" points="67.81 62.42 73.25 62.42 73.25 61.98 72.36 61.98 72.27 61.98 72.18 61.98 71.66 61.98 71.57 61.98 71.49 61.98 70.96 61.98 70.88 61.98 70.79 61.98 70.27 61.98 70.18 61.98 70.09 61.98 69.57 61.98 69.48 61.98 69.4 61.98 68.87 61.98 68.79 61.98 68.7 61.98 67.81 61.98 67.81 62.42"/>
                  <polygon class="cls-3" points="67.81 63.04 68.3 63.04 68.39 63.04 72.67 63.04 72.75 63.04 73.25 63.04 73.25 62.6 67.81 62.6 67.81 63.04"/>
                  <path class="cls-3" d="M63.24,79.4l.44,.44c.28-.25,.63-.41,1-.42,.4-.02,.77,.13,1.05,.4,.54,.54,.52,1.44-.02,2.05l.44,.44,1.32-1.32-2.9-2.9-1.32,1.32Z"/>
                  <path class="cls-3" d="M65.6,79.93c-.24-.24-.57-.36-.92-.35-.33,.01-.64,.15-.89,.37l.23,.23c.4-.34,.97-.34,1.32,0,.35,.35,.34,.93,0,1.32l.23,.23c.48-.54,.5-1.33,.02-1.81Z"/>
                  <path class="cls-3" d="M64.15,80.31l1.08,1.08c.27-.33,.28-.79,0-1.08-.28-.28-.75-.28-1.08,0Z"/>
                  <polygon class="cls-3" points="66.08 82.48 63.06 79.46 63 79.4 62.39 78.79 61.79 79.39 66.15 83.75 66.75 83.15 66.14 82.54 66.08 82.48"/>
                  <polygon class="cls-3" points="67.12 76.82 67.08 76.49 66.74 76.45 65.83 77.37 66.2 77.74 67.12 76.82"/>
                  <polygon class="cls-3" points="67.68 77 67.24 76.95 67.24 76.95 66.32 77.86 66.69 78.23 67.85 77.07 67.83 76.85 67.68 77"/>
                  <path class="cls-3" d="M68.35,77.56l-.04-.33-.33-.04-1.16,1.16,.37,.37,1.16-1.16Zm-.51,.02l.06,.06,.06,.06-.54,.54-.06-.06-.06-.06,.54-.54Z"/>
                  <polygon class="cls-3" points="68.47 77.68 67.31 78.85 67.68 79.22 68.59 78.3 68.54 77.86 68.69 77.71 68.47 77.68"/>
                  <polygon class="cls-3" points="68.71 78.42 67.8 79.34 68.17 79.71 69.09 78.79 69.05 78.46 68.71 78.42"/>
                  <polygon class="cls-3" points="66.79 76.29 66.79 76.29 66.9 76.3 67.12 76.32 67.24 76.2 67.3 76.15 67.36 76.09 67.42 76.03 67.49 75.95 67.12 75.58 66.75 75.95 66.78 76.18 66.79 76.29"/>
                  <polygon class="cls-3" points="67.54 76.15 67.48 76.21 67.42 76.27 67.37 76.32 67.25 76.44 67.27 76.67 67.27 76.67 67.28 76.78 67.28 76.78 67.39 76.79 67.39 76.79 67.62 76.81 67.79 76.64 67.81 76.63 67.81 76.63 67.85 76.58 67.91 76.52 67.99 76.45 67.62 76.07 67.54 76.15"/>
                  <polygon class="cls-3" points="69.33 78.06 69.39 78 69.46 77.92 69.09 77.55 69.02 77.63 68.96 77.69 68.91 77.73 68.91 77.73 68.9 77.75 68.72 77.92 68.75 78.15 68.75 78.15 68.76 78.26 68.87 78.27 68.87 78.27 69.1 78.29 69.22 78.17 69.27 78.12 69.33 78.06"/>
                  <polygon class="cls-3" points="69.51 78.12 69.45 78.18 69.39 78.24 69.34 78.29 69.22 78.41 69.24 78.64 69.25 78.75 69.36 78.76 69.59 78.78 69.96 78.42 69.59 78.05 69.51 78.12"/>
                  <polygon class="cls-3" points="68.04 76.64 67.99 76.69 67.99 76.72 68 76.85 68.01 76.91 68.02 77.02 68.02 77.02 68.13 77.04 68.19 77.04 68.33 77.06 68.36 77.06 68.41 77.01 68.48 76.94 68.73 76.69 68.36 76.32 68.04 76.64"/>
                  <polygon class="cls-3" points="68.85 77.55 68.9 77.5 69.22 77.18 68.85 76.81 68.6 77.06 68.53 77.13 68.48 77.18 68.48 77.21 68.5 77.35 68.5 77.41 68.52 77.52 68.52 77.52 68.63 77.53 68.69 77.53 68.82 77.55 68.85 77.55"/>
                  <polygon class="cls-3" points="68.11 79.89 68.05 79.83 67.68 79.46 67.68 79.46 67.62 79.4 67.56 79.34 67.56 79.34 67.19 78.97 67.13 78.91 67.06 78.85 66.69 78.47 66.63 78.41 66.57 78.35 66.2 77.98 66.2 77.98 66.14 77.92 66.08 77.86 66.08 77.86 65.71 77.49 65.65 77.43 65.59 77.37 64.95 76.74 64.64 77.05 68.49 80.9 68.8 80.58 68.17 79.95 68.11 79.89"/>
                  <polygon class="cls-3" points="64.52 77.17 64.21 77.48 64.56 77.84 64.62 77.9 67.64 80.92 67.7 80.98 68.06 81.33 68.37 81.02 66.44 79.09 64.52 77.17"/>
                  <path class="cls-3" d="M43.11,51.05v-1.86h-4.1v1.86h.62c.04-.81,.67-1.46,1.43-1.46s1.39,.65,1.43,1.46h.62Z"/>
                  <path class="cls-3" d="M42.32,51.05c-.04-.72-.59-1.29-1.26-1.29s-1.22,.57-1.26,1.29h.32c.04-.52,.44-.93,.94-.93s.9,.41,.94,.93h.32Z"/>
                  <path class="cls-3" d="M41.06,50.29c-.4,0-.73,.33-.77,.76h1.53c-.04-.42-.37-.76-.77-.76Z"/>
                  <polygon class="cls-3" points="44.14 51.22 43.28 51.22 43.2 51.22 38.92 51.22 38.84 51.22 37.98 51.22 37.98 52.06 44.14 52.06 44.14 51.22"/>
                  <polygon class="cls-3" points="42.19 47.78 42.71 47.78 42.71 46.49 42.45 46.28 42.19 46.49 42.19 47.78"/>
                  <polygon class="cls-3" points="41.49 46.14 41.49 47.78 42.02 47.78 42.02 46.49 41.67 46.21 41.67 46 41.49 46.14"/>
                  <path class="cls-3" d="M40.8,47.78h.52v-1.64l-.26-.21-.26,.21v1.64Zm.18-1.27h.17v.77h-.17v-.77Z"/>
                  <polygon class="cls-3" points="40.1 47.78 40.62 47.78 40.62 46.14 40.45 46 40.45 46.21 40.1 46.49 40.1 47.78"/>
                  <polygon class="cls-3" points="39.4 47.78 39.93 47.78 39.93 46.49 39.67 46.28 39.4 46.49 39.4 47.78"/>
                  <polygon class="cls-3" points="42.8 46.34 42.8 46.34 42.89 46.27 43.06 46.13 43.06 45.6 42.54 45.6 42.54 45.71 42.54 45.79 42.54 45.88 42.54 46.13 42.71 46.27 42.8 46.34"/>
                  <polygon class="cls-3" points="42.1 46.34 42.19 46.27 42.37 46.13 42.37 45.88 42.37 45.79 42.37 45.71 42.37 45.6 41.84 45.6 41.84 45.71 41.84 45.79 41.84 45.86 41.84 45.88 41.84 46.13 42.02 46.27 42.1 46.34"/>
                  <polygon class="cls-3" points="40.01 46.34 40.1 46.27 40.28 46.13 40.28 45.88 40.28 45.86 40.28 45.79 40.28 45.71 40.28 45.6 39.75 45.6 39.75 45.71 39.75 45.79 39.75 45.88 39.75 46.13 39.93 46.27 40.01 46.34"/>
                  <polygon class="cls-3" points="39.32 46.34 39.32 46.34 39.4 46.27 39.58 46.13 39.58 45.88 39.58 45.79 39.58 45.71 39.58 45.6 39.06 45.6 39.06 46.13 39.23 46.27 39.32 46.34"/>
                  <polygon class="cls-3" points="41.28 45.88 41.32 45.92 41.41 45.99 41.41 45.99 41.49 45.92 41.54 45.88 41.65 45.79 41.67 45.78 41.67 45.71 41.67 45.43 41.67 45.25 41.15 45.25 41.15 45.71 41.15 45.78 41.17 45.79 41.28 45.88"/>
                  <polygon class="cls-3" points="40.58 45.88 40.62 45.92 40.71 45.99 40.71 45.99 40.8 45.92 40.84 45.88 40.95 45.79 40.97 45.78 40.97 45.71 40.97 45.25 40.45 45.25 40.45 45.43 40.45 45.71 40.45 45.78 40.47 45.79 40.58 45.88"/>
                  <polygon class="cls-3" points="43.78 47.95 42.89 47.95 42.8 47.95 42.71 47.95 42.19 47.95 42.1 47.95 42.02 47.95 41.49 47.95 41.41 47.95 41.32 47.95 40.8 47.95 40.71 47.95 40.62 47.95 40.1 47.95 40.01 47.95 39.93 47.95 39.4 47.95 39.32 47.95 39.23 47.95 38.34 47.95 38.34 48.4 43.78 48.4 43.78 47.95"/>
                  <polygon class="cls-3" points="38.92 49.01 43.2 49.01 43.28 49.01 43.78 49.01 43.78 48.57 38.34 48.57 38.34 49.01 38.84 49.01 38.92 49.01"/>
                  <path class="cls-3" d="M43.11,65.08v-1.86h-4.1v1.86h.62c.04-.81,.67-1.46,1.43-1.46s1.39,.65,1.43,1.46h.62Z"/>
                  <path class="cls-3" d="M42.32,65.08c-.04-.72-.59-1.29-1.26-1.29s-1.22,.57-1.26,1.29h.32c.04-.52,.44-.93,.94-.93s.9,.41,.94,.93h.32Z"/>
                  <path class="cls-3" d="M41.06,64.32c-.4,0-.73,.33-.77,.76h1.53c-.04-.42-.37-.76-.77-.76Z"/>
                  <polygon class="cls-3" points="44.14 65.25 43.28 65.25 43.2 65.25 38.92 65.25 38.84 65.25 37.98 65.25 37.98 66.09 44.14 66.09 44.14 65.25"/>
                  <polygon class="cls-3" points="42.19 60.52 42.19 61.81 42.71 61.81 42.71 60.52 42.45 60.31 42.19 60.52"/>
                  <polygon class="cls-3" points="41.67 60.03 41.49 60.17 41.49 61.81 42.02 61.81 42.02 60.52 41.67 60.24 41.67 60.03"/>
                  <path class="cls-3" d="M40.8,60.17v1.64h.52v-1.64l-.26-.21-.26,.21Zm.35,1.15h-.17v-.77h.17v.77Z"/>
                  <polygon class="cls-3" points="40.45 60.24 40.1 60.52 40.1 61.81 40.62 61.81 40.62 60.17 40.45 60.03 40.45 60.24"/>
                  <polygon class="cls-3" points="39.4 60.52 39.4 61.81 39.93 61.81 39.93 60.52 39.67 60.31 39.4 60.52"/>
                  <polygon class="cls-3" points="42.8 60.36 42.8 60.36 42.89 60.3 43.06 60.15 43.06 59.63 42.54 59.63 42.54 59.74 42.54 59.82 42.54 59.91 42.54 60.15 42.71 60.3 42.8 60.36"/>
                  <polygon class="cls-3" points="41.84 59.74 41.84 59.82 41.84 59.89 41.84 59.91 41.84 60.15 42.02 60.3 42.1 60.36 42.19 60.3 42.37 60.15 42.37 59.91 42.37 59.82 42.37 59.74 42.37 59.63 41.84 59.63 41.84 59.74"/>
                  <polygon class="cls-3" points="39.75 59.74 39.75 59.82 39.75 59.91 39.75 60.15 39.93 60.3 40.01 60.36 40.1 60.3 40.28 60.15 40.28 59.91 40.28 59.89 40.28 59.82 40.28 59.74 40.28 59.63 39.75 59.63 39.75 59.74"/>
                  <polygon class="cls-3" points="39.06 60.15 39.23 60.3 39.32 60.36 39.32 60.36 39.4 60.3 39.58 60.15 39.58 59.91 39.58 59.82 39.58 59.74 39.58 59.63 39.06 59.63 39.06 60.15"/>
                  <polygon class="cls-3" points="41.15 59.74 41.15 59.8 41.17 59.82 41.28 59.91 41.32 59.95 41.41 60.01 41.41 60.01 41.49 59.95 41.54 59.91 41.65 59.82 41.67 59.8 41.67 59.74 41.67 59.46 41.67 59.28 41.15 59.28 41.15 59.74"/>
                  <polygon class="cls-3" points="40.45 59.46 40.45 59.74 40.45 59.8 40.47 59.82 40.58 59.91 40.62 59.95 40.71 60.01 40.71 60.01 40.8 59.95 40.84 59.91 40.95 59.82 40.97 59.8 40.97 59.74 40.97 59.28 40.45 59.28 40.45 59.46"/>
                  <polygon class="cls-3" points="43.78 61.98 42.89 61.98 42.8 61.98 42.71 61.98 42.19 61.98 42.1 61.98 42.02 61.98 41.49 61.98 41.41 61.98 41.32 61.98 40.8 61.98 40.71 61.98 40.62 61.98 40.1 61.98 40.01 61.98 39.93 61.98 39.4 61.98 39.32 61.98 39.23 61.98 38.34 61.98 38.34 62.42 43.78 62.42 43.78 61.98"/>
                  <polygon class="cls-3" points="43.28 63.04 43.78 63.04 43.78 62.6 38.34 62.6 38.34 63.04 38.84 63.04 38.92 63.04 43.2 63.04 43.28 63.04"/>
                  <path class="cls-3" d="M45.88,81.86c-.55-.61-.56-1.51-.02-2.05,.27-.27,.64-.42,1.05-.4,.37,.01,.72,.17,1,.42l.44-.44-1.32-1.32-2.9,2.9,1.32,1.32,.44-.44Z"/>
                  <path class="cls-3" d="M47.79,79.96c-.25-.22-.56-.36-.89-.37-.35-.01-.68,.11-.92,.35-.48,.48-.46,1.27,.02,1.81l.23-.23c-.34-.4-.34-.97,0-1.32,.35-.35,.93-.34,1.32,0l.23-.23Z"/>
                  <path class="cls-3" d="M46.35,81.39l1.08-1.08c-.33-.27-.8-.28-1.08,0-.28,.28-.28,.75,0,1.08Z"/>
                  <polygon class="cls-3" points="48.59 79.4 48.53 79.46 45.51 82.48 45.45 82.54 44.84 83.15 45.43 83.75 49.79 79.39 49.2 78.79 48.59 79.4"/>
                  <polygon class="cls-3" points="44.47 76.82 45.39 77.74 45.76 77.37 44.84 76.45 44.51 76.49 44.47 76.82"/>
                  <polygon class="cls-3" points="45.26 77.86 44.35 76.95 44.35 76.95 43.91 77 43.76 76.85 43.73 77.07 44.89 78.23 45.26 77.86"/>
                  <path class="cls-3" d="M44.77,78.35l-1.16-1.16-.33,.04-.04,.33,.56,.56,.6,.6,.37-.37Zm-.6-.1l-.55-.54,.06-.06,.06-.06,.55,.54-.12,.12Z"/>
                  <polygon class="cls-3" points="43.31 78.62 43.91 79.22 44.28 78.85 43.68 78.25 43.12 77.68 42.89 77.71 43.04 77.86 42.99 78.3 43.31 78.62"/>
                  <polygon class="cls-3" points="43.79 79.34 43.19 78.74 42.87 78.42 42.54 78.46 42.5 78.79 43.42 79.71 43.79 79.34"/>
                  <polygon class="cls-3" points="44.17 76.03 44.23 76.09 44.29 76.15 44.34 76.2 44.46 76.32 44.69 76.3 44.8 76.29 44.8 76.29 44.81 76.18 44.83 75.95 44.46 75.58 44.09 75.95 44.17 76.03"/>
                  <polygon class="cls-3" points="43.73 76.58 43.78 76.63 43.8 76.64 43.97 76.81 44.19 76.79 44.19 76.79 44.3 76.78 44.3 76.78 44.32 76.67 44.32 76.67 44.34 76.44 44.22 76.32 44.17 76.27 44.11 76.21 44.04 76.15 43.97 76.07 43.6 76.45 43.67 76.52 43.73 76.58"/>
                  <polygon class="cls-3" points="42.83 78.26 42.84 78.15 42.86 77.92 42.69 77.75 42.67 77.73 42.67 77.73 42.63 77.69 42.57 77.63 42.49 77.55 42.12 77.92 42.2 78 42.26 78.06 42.32 78.12 42.37 78.17 42.49 78.29 42.72 78.27 42.83 78.26"/>
                  <polygon class="cls-3" points="42.2 78.24 42.14 78.18 42.07 78.12 42 78.05 41.63 78.42 42 78.78 42.22 78.76 42.33 78.75 42.35 78.64 42.37 78.41 42.25 78.29 42.2 78.24"/>
                  <polygon class="cls-3" points="43.18 77.01 43.23 77.06 43.26 77.06 43.39 77.04 43.45 77.04 43.45 77.04 43.56 77.02 43.56 77.02 43.58 76.91 43.58 76.91 43.58 76.85 43.6 76.72 43.6 76.69 43.55 76.64 43.36 76.45 43.23 76.32 42.86 76.69 43.11 76.94 43.18 77.01"/>
                  <polygon class="cls-3" points="42.37 77.18 42.69 77.5 42.74 77.55 42.76 77.55 42.9 77.53 42.96 77.53 43.07 77.52 43.07 77.52 43.08 77.41 43.09 77.35 43.1 77.21 43.11 77.18 43.06 77.13 42.99 77.06 42.74 76.81 42.37 77.18"/>
                  <polygon class="cls-3" points="46.95 77.05 46.63 76.74 46 77.37 45.94 77.43 45.88 77.49 45.51 77.86 45.51 77.86 45.45 77.92 45.39 77.98 45.39 77.98 45.02 78.35 44.95 78.41 44.89 78.47 44.52 78.85 44.46 78.91 44.4 78.97 44.03 79.34 43.97 79.4 43.91 79.46 43.54 79.83 43.48 79.89 43.42 79.95 42.78 80.58 43.1 80.9 45.03 78.97 46.95 77.05"/>
                  <polygon class="cls-3" points="47.03 77.84 47.38 77.48 47.07 77.17 47.07 77.17 43.22 81.02 43.53 81.33 43.88 80.98 43.94 80.92 46.97 77.9 47.03 77.84"/>
                </g>
                <g>
                  <path d="M57.96,49.18h.67v-1.4h-1.07v-1.29l.35-.28v-.78h-1.39v-.35h-1.57v.35h-1.39v.78l.35,.28v1.29h-1.07v1.4h.67v1.86h-1.03v1.19h6.51v-1.19h-1.03v-1.86Zm.86,2.88h-6.16v-.84h6.16v.84Zm-2.32-1.01h-1.53c.04-.42,.37-.76,.77-.76s.73,.33,.77,.76Zm.17,0c-.04-.52-.44-.93-.94-.93s-.9,.41-.94,.93h-.32c.04-.72,.59-1.29,1.26-1.29s1.22,.57,1.26,1.29h-.32Zm1.11,0h-.62c-.04-.81-.67-1.46-1.43-1.46s-1.39,.65-1.43,1.46h-.62v-1.86h4.1v1.86Zm-4.77-3.09h5.44v.44h-5.44v-.44Zm.72-2.35h.52v.52l-.18,.14-.09,.07h0s-.09-.07-.09-.07l-.18-.14v-.52Zm.7,0h.52v.52l-.18,.14-.09,.07-.09-.07-.18-.14v-.52Zm.7-.17v-.18h.52v.52l-.02,.02-.11,.09-.05,.04-.09,.07-.09-.07-.05-.04-.11-.09-.02-.02v-.35Zm.7-.18h.52v.52l-.02,.02-.11,.09-.05,.04-.09,.07h0s-.09-.07-.09-.07l-.05-.04-.11-.09-.02-.02v-.52Zm1.39,.35h.52v.52l-.18,.14-.09,.07h0s-.09-.07-.09-.07l-.18-.14v-.52Zm-2.44,.88l.35-.28v-.21l.18,.14v1.64h-.52v-1.29Zm.7-.35l.26-.21,.26,.21v1.64h-.52v-1.64Zm.7,0l.18-.14v.21l.35,.28v1.29h-.52v-1.64Zm.7,1.64v-1.29l.26-.21,.26,.21v1.29h-.52Zm.18-2.07v.42l-.18,.14-.09,.07-.09-.07-.18-.14v-.52h.52v.1Zm-2.96,.78l.26-.21,.26,.21v1.29h-.52v-1.29Zm-1.07,2.08h5.44v.44h-5.44v-.44Z"/>
                  <polygon points="55.65 46.51 55.65 47.29 55.82 47.29 55.82 46.51 55.74 46.51 55.65 46.51"/>
                  <path d="M72.75,51.05v-1.86h.67v-1.4h-1.07v-1.29l.35-.28v-.78h-1.39v-.35h-1.57v.35h-1.39v.78l.35,.28v1.29h-1.07v1.4h.67v1.86h-1.03v1.19h6.51v-1.19h-1.03Zm.86,1.01h-6.16v-.84h6.16v.84Zm-5.8-4.11h5.44v.44h-5.44v-.44Zm.72-2.35h.52v.52l-.18,.14-.09,.07h0s-.09-.07-.09-.07l-.18-.14v-.52Zm.7,0h.52v.52l-.18,.14-.09,.07-.09-.07-.18-.14v-.52Zm.7-.17v-.18h.52v.52l-.02,.02-.11,.09-.05,.04-.09,.07h0s-.09-.07-.09-.07l-.05-.04-.11-.09-.02-.02v-.35Zm.7-.18h.52v.52l-.02,.02-.11,.09-.05,.04-.09,.07h0s-.09-.07-.09-.07l-.05-.04-.11-.09-.02-.02v-.52Zm1.39,.35h.52v.52l-.18,.14-.09,.07h0s-.09-.07-.09-.07l-.18-.14v-.52Zm-2.44,.88l.35-.28v-.21l.18,.14v1.64h-.52v-1.29Zm.7-.35l.26-.21,.26,.21v1.64h-.52v-1.64Zm.7,0l.18-.14v.21l.35,.28v1.29h-.52v-1.64Zm1.22,1.64h-.52v-1.29l.26-.21,.26,.21v1.29Zm-.35-2.07v.42l-.18,.14-.09,.07-.09-.07-.18-.14v-.52h.52v.1Zm-2.96,.78l.26-.21,.26,.21v1.29h-.52v-1.29Zm-1.07,2.08h5.44v.44h-5.44v-.44Zm.67,.61h4.1v1.86h-.62c-.04-.81-.67-1.46-1.43-1.46s-1.39,.65-1.43,1.46h-.62v-1.86Zm2.05,1.11c.4,0,.73,.33,.77,.76h-1.53c.04-.42,.37-.76,.77-.76Zm.94,.76c-.04-.52-.44-.93-.94-.93s-.9,.41-.94,.93h-.32c.04-.72,.59-1.29,1.26-1.29s1.22,.57,1.26,1.29h-.32Z"/>
                  <polygon points="70.44 46.51 70.44 47.29 70.61 47.29 70.61 46.51 70.53 46.51 70.44 46.51"/>
                  <path d="M72.75,63.21h.67v-1.4h-1.07v-1.29l.35-.28v-.78h-1.39v-.35h-1.57v.35h-1.39v.78l.35,.28v1.29h-1.07v1.4h.67v1.86h-1.03v1.19h6.51v-1.19h-1.03v-1.86Zm.86,2.88h-6.16v-.84h6.16v.84Zm-2.32-1.01h-1.53c.04-.42,.37-.76,.77-.76s.73,.33,.77,.76Zm.17,0c-.04-.52-.44-.93-.94-.93s-.9,.41-.94,.93h-.32c.04-.72,.59-1.29,1.26-1.29s1.22,.57,1.26,1.29h-.32Zm1.11,0h-.62c-.04-.81-.67-1.46-1.43-1.46s-1.39,.65-1.43,1.46h-.62v-1.86h4.1v1.86Zm-4.77-3.09h5.44v.44h-5.44v-.44Zm.72-2.35h.52v.52l-.18,.14-.09,.07h0s-.09-.07-.09-.07l-.18-.14v-.52Zm.7,0h.52v.52l-.18,.14-.09,.07-.09-.07-.18-.14v-.52Zm.7-.17v-.18h.52v.52l-.02,.02-.11,.09-.05,.04-.09,.07h0s-.09-.07-.09-.07l-.05-.04-.11-.09-.02-.02v-.35Zm.7-.18h.52v.52l-.02,.02-.11,.09-.05,.04-.09,.07h0s-.09-.07-.09-.07l-.05-.04-.11-.09-.02-.02v-.52Zm1.39,.35h.52v.52l-.18,.14-.09,.07h0s-.09-.07-.09-.07l-.18-.14v-.52Zm-2.44,.88l.35-.28v-.21l.18,.14v1.64h-.52v-1.29Zm.7-.35l.26-.21,.26,.21v1.64h-.52v-1.64Zm.7,0l.18-.14v.21l.35,.28v1.29h-.52v-1.64Zm1.22,1.64h-.52v-1.29l.26-.21,.26,.21v1.29Zm-.35-2.07v.42l-.18,.14-.09,.07-.09-.07-.18-.14v-.52h.52v.1Zm-2.96,.78l.26-.21,.26,.21v1.29h-.52v-1.29Zm-1.07,2.08h5.44v.44h-5.44v-.44Z"/>
                  <polygon points="70.44 60.54 70.44 61.31 70.61 61.31 70.61 60.54 70.53 60.54 70.44 60.54"/>
                  <path d="M69.22,77.43l.25-.25-.55-.55-.55-.55-.25,.25-.41-.41-.57-.57-.55,.55,.05,.44-.91,.91-.75-.75-.56,.56-.43,.43,.47,.47-1.32,1.32-.67-.67-.06-.06-.84,.84,4.54,4.54,.06,.06,.84-.84-.73-.73,1.32-1.32,.41,.41,.06,.06,.43-.43h0s.06-.06,.06-.06l.06-.06h0s.43-.43,.43-.43l-.75-.75,.91-.91,.44,.05,.55-.55-.49-.49-.49-.49Zm.15,1.33h-.11s-.01-.12-.01-.12l-.02-.22,.12-.12,.05-.05,.06-.06,.06-.06,.07-.07,.37,.37-.37,.37-.22-.02Zm-1,2.26l-.31,.31-.35-.35-.06-.06-3.02-3.02-.06-.06-.35-.35,.31-.31,1.92,1.92,1.93,1.93Zm-6.57-1.63l.6-.6,.61,.61,.06,.06,3.02,3.02,.06,.06,.61,.61-.6,.6-4.36-4.36Zm2.36,.92c.33-.27,.8-.28,1.08,0,.28,.28,.28,.75,0,1.08l-1.08-1.08Zm1.21,1.21c.34-.4,.34-.97,0-1.32-.35-.35-.92-.34-1.32,0l-.23-.23c.25-.22,.56-.36,.89-.37,.35-.01,.68,.11,.92,.35,.48,.48,.46,1.27-.02,1.81l-.23-.23Zm.35,.35c.55-.61,.56-1.51,.02-2.05-.27-.27-.65-.42-1.05-.4-.37,.01-.72,.17-1,.42l-.44-.44,1.32-1.32,2.9,2.9-1.32,1.32-.44-.44Zm-1.06-4.81l.31-.31,.63,.63,.06,.06,.06,.06,.37,.37h0s.06,.06,.06,.06l.06,.06h0s.37,.37,.37,.37l.06,.06,.06,.06,.37,.37,.06,.06,.06,.06,.37,.37h0s.06,.06,.06,.06l.06,.06h0s.37,.37,.37,.37l.06,.06,.06,.06,.63,.63-.31,.31-3.85-3.85Zm2.11-1.1l.37-.37,.37,.37-.07,.07-.06,.06-.06,.06-.05,.05-.12,.12-.22-.02h-.11s-.01-.12-.01-.12l-.02-.22Zm.48,.99h0l.44,.05,.15-.15,.02,.22-1.16,1.16-.37-.37,.91-.91Zm.74,.25l.33,.04,.04,.33-1.16,1.16-.37-.37,1.16-1.16Zm.49,.49l.22,.02-.15,.15,.05,.44-.91,.91-.37-.37,1.16-1.16Zm.92,.31l-.06,.06-.06,.06-.05,.05-.12,.12-.22-.02h0s-.11-.01-.11-.01v-.11s-.01,0-.01,0l-.02-.22,.17-.17h.01s0-.01,0-.01l.05-.05,.06-.06,.07-.07,.37,.37-.07,.07Zm-.49-.49l-.05,.05h-.03s-.14-.02-.14-.02h-.06s-.11-.02-.11-.02h0s-.01-.11-.01-.11v-.06s-.02-.14-.02-.14v-.03s.05-.05,.05-.05l.07-.07,.25-.25,.37,.37-.32,.32Zm-.42-.56l-.07,.07-.05,.05h-.03s-.14-.02-.14-.02h-.06s-.11-.02-.11-.02h0v-.11s-.02-.06-.02-.06l-.02-.14v-.03s.05-.05,.05-.05l.32-.32,.37,.37-.25,.25Zm-.56-.42l-.06,.06-.05,.05h0s-.01,.01-.01,.01l-.17,.17-.22-.02h-.11s-.01-.12-.01-.12h0s-.02-.22-.02-.22l.12-.12,.05-.05,.06-.06,.06-.06,.07-.07,.37,.37-.07,.07Zm-1.17-.06l.33,.04,.04,.33-.91,.91-.37-.37,.91-.91Zm1.06,2.88l.91-.91,.33,.04,.04,.33-.91,.91-.37-.37Z"/>
                  <polygon points="67.41 78.25 67.96 77.7 67.9 77.64 67.84 77.58 67.29 78.13 67.35 78.19 67.41 78.25"/>
                  <path d="M44.31,51.05h-1.03v-1.86h.67v-1.4h-1.07v-1.29l.35-.28v-.78h-1.39v-.35h-1.57v.35h-1.39v.78l.35,.28v1.29h-1.07v1.4h.67v1.86h-1.03v1.19h6.51v-1.19Zm-.17,1.01h-6.16v-.84h6.16v.84Zm-5.8-4.11h5.44v.44h-5.44v-.44Zm.72-2.35h.52v.52l-.18,.14-.09,.07h0s-.09-.07-.09-.07l-.18-.14v-.52Zm.7,0h.52v.52l-.18,.14-.09,.07-.09-.07-.18-.14v-.52Zm.7-.17v-.18h.52v.52l-.02,.02-.11,.09-.05,.04-.09,.07h0s-.09-.07-.09-.07l-.05-.04-.11-.09-.02-.02v-.35Zm.7-.18h.52v.52l-.02,.02-.11,.09-.05,.04-.09,.07h0s-.09-.07-.09-.07l-.05-.04-.11-.09-.02-.02v-.52Zm1.39,.35h.52v.52l-.18,.14-.09,.07h0s-.09-.07-.09-.07l-.18-.14v-.52Zm-2.44,.88l.35-.28v-.21l.18,.14v1.64h-.52v-1.29Zm.7-.35l.26-.21,.26,.21v1.64h-.52v-1.64Zm.7,0l.18-.14v.21l.35,.28v1.29h-.52v-1.64Zm1.22,1.64h-.52v-1.29l.26-.21,.26,.21v1.29Zm-.35-2.07v.42l-.18,.14-.09,.07-.09-.07-.18-.14v-.52h.52v.1Zm-2.96,.78l.26-.21,.26,.21v1.29h-.52v-1.29Zm-1.07,2.08h5.44v.44h-5.44v-.44Zm.67,.61h4.1v1.86h-.62c-.04-.81-.67-1.46-1.43-1.46s-1.39,.65-1.43,1.46h-.62v-1.86Zm2.05,1.11c.4,0,.73,.33,.77,.76h-1.53c.04-.42,.37-.76,.77-.76Zm.94,.76c-.04-.52-.44-.93-.94-.93s-.9,.41-.94,.93h-.32c.04-.72,.59-1.29,1.26-1.29s1.22,.57,1.26,1.29h-.32Z"/>
                  <polygon points="40.97 46.51 40.97 47.29 41.15 47.29 41.15 46.51 41.06 46.51 40.97 46.51"/>
                  <path d="M44.31,65.08h-1.03v-1.86h.67v-1.4h-1.07v-1.29l.35-.28v-.78h-1.39v-.35h-1.57v.35h-1.39v.78l.35,.28v1.29h-1.07v1.4h.67v1.86h-1.03v1.19h6.51v-1.19Zm-.17,1.01h-6.16v-.84h6.16v.84Zm-5.8-4.11h5.44v.44h-5.44v-.44Zm.72-2.35h.52v.52l-.18,.14-.09,.07h0s-.09-.07-.09-.07l-.18-.14v-.52Zm.7,0h.52v.52l-.18,.14-.09,.07-.09-.07-.18-.14v-.52Zm.7-.17v-.18h.52v.52l-.02,.02-.11,.09-.05,.04-.09,.07h0s-.09-.07-.09-.07l-.05-.04-.11-.09-.02-.02v-.35Zm.7-.18h.52v.52l-.02,.02-.11,.09-.05,.04-.09,.07h0s-.09-.07-.09-.07l-.05-.04-.11-.09-.02-.02v-.52Zm1.39,.35h.52v.52l-.18,.14-.09,.07h0s-.09-.07-.09-.07l-.18-.14v-.52Zm-2.44,.88l.35-.28v-.21l.18,.14v1.64h-.52v-1.29Zm.7-.35l.26-.21,.26,.21v1.64h-.52v-1.64Zm.7,0l.18-.14v.21l.35,.28v1.29h-.52v-1.64Zm1.22,1.64h-.52v-1.29l.26-.21,.26,.21v1.29Zm-.35-2.07v.42l-.18,.14-.09,.07-.09-.07-.18-.14v-.52h.52v.1Zm-2.96,.78l.26-.21,.26,.21v1.29h-.52v-1.29Zm-1.07,2.08h5.44v.44h-5.44v-.44Zm.67,.61h4.1v1.86h-.62c-.04-.81-.67-1.46-1.43-1.46s-1.39,.65-1.43,1.46h-.62v-1.86Zm2.05,1.11c.4,0,.73,.33,.77,.76h-1.53c.04-.42,.37-.76,.77-.76Zm.94,.76c-.04-.52-.44-.93-.94-.93s-.9,.41-.94,.93h-.32c.04-.72,.59-1.29,1.26-1.29s1.22,.57,1.26,1.29h-.32Z"/>
                  <polygon points="40.97 60.54 40.97 61.31 41.15 61.31 41.15 60.54 41.06 60.54 40.97 60.54"/>
                  <path d="M48.47,79.28l-1.32-1.32,.41-.41,.06-.06-.43-.43-.56-.56-.75,.75-.91-.91,.05-.44-.55-.55-.55,.55-.43,.43-.25-.25-.61,.62-.49,.49,.25,.25-.49,.49-.49,.49,.55,.55,.44-.05,.91,.91-.69,.69-.06,.06,.43,.43h0s.06,.06,.06,.06l.06,.06h0s.43,.43,.43,.43l.47-.47,1.32,1.32-.67,.67-.06,.06,.84,.84,4.54-4.54,.06-.06-.84-.84-.73,.73Zm-3.03,4.47l-.6-.6,.61-.61,.06-.06,3.02-3.02,.06-.06,.61-.61,.6,.6-4.36,4.36Zm-1.9-2.41l-.31-.31,3.85-3.85h0s.31,.31,.31,.31l-.35,.35-.06,.06-3.02,3.02-.06,.06-.35,.35Zm-.43-.43l-.31-.31,.63-.63,.06-.06,.06-.06,.37-.37,.06-.06,.06-.06,.37-.37,.06-.06,.06-.06,.37-.37,.06-.06,.06-.06,.37-.37h0s.06-.06,.06-.06l.06-.06h0s.37-.37,.37-.37l.06-.06,.06-.06,.63-.63,.31,.31-1.92,1.92-1.93,1.93Zm-1.1-2.11l-.37-.37,.37-.37,.07,.07,.06,.06,.06,.06,.05,.05,.12,.12-.02,.22v.11s-.12,.01-.12,.01l-.22,.02Zm.89-1.08l.22-.02,.56,.56,.6,.6-.37,.37-.59-.59-.32-.32,.05-.44-.15-.15Zm.91,.42l-.56-.56,.04-.33,.33-.04,1.16,1.16-.37,.37-.6-.6Zm-.07-1.06l.02-.22,.15,.15,.44-.05h0l.91,.91-.37,.37-1.16-1.16Zm1.65,.67l-.91-.91,.04-.33,.33-.04,.91,.91-.37,.37Zm-.58-1.56v.11s-.01,0-.01,0h-.11s-.22,.04-.22,.04l-.12-.12-.05-.05-.06-.06-.06-.06-.07-.07,.37-.37,.37,.37-.02,.22Zm-.84-.1l.07,.07,.06,.06,.06,.06,.05,.05,.12,.12-.02,.22h0s-.01,.11-.01,.11h0s-.11,.01-.11,.01h0l-.22,.02-.17-.17h-.01s-.05-.06-.05-.06l-.06-.06-.07-.07,.37-.37Zm-.42,.57l.05,.05v.03s-.02,.14-.02,.14v.06s0,0,0,0v.11h-.12s0,.01,0,.01h-.06s-.14,.02-.14,.02h-.03s-.05-.05-.05-.05l-.07-.07-.25-.25,.37-.37,.12,.12,.2,.2Zm-.56,.42l.07,.07,.05,.05v.03s-.02,.14-.02,.14v.06s-.02,.11-.02,.11h0s-.11,.01-.11,.01h-.06s-.14,.02-.14,.02h-.03s-.05-.05-.05-.05l-.32-.32,.37-.37,.25,.25Zm-.42,.56l.06,.06,.05,.05h.01s.17,.19,.17,.19l-.02,.22v.11s-.12,.01-.12,.01l-.22,.02-.12-.12-.05-.05-.06-.06-.06-.06-.07-.07,.37-.37,.07,.07Zm-.03,.84l.33-.04,.32,.32,.59,.59-.37,.37-.91-.91,.04-.33Zm4.49-.38l1.32,1.32-.44,.44c-.28-.25-.63-.41-1-.42-.4-.02-.77,.13-1.05,.4-.54,.54-.52,1.44,.02,2.05l-.44,.44-1.32-1.32,2.9-2.9Zm-.67,3.31c-.27-.33-.28-.79,0-1.08,.28-.28,.75-.28,1.08,0l-1.08,1.08Zm-.12-1.2c-.35,.35-.34,.93,0,1.32l-.23,.23c-.48-.54-.5-1.33-.02-1.81,.24-.24,.57-.36,.92-.35,.33,.01,.64,.15,.89,.37l-.23,.23c-.4-.34-.97-.34-1.32,0Z"/>
                  <polygon points="43.69 77.64 43.63 77.7 44.18 78.25 44.3 78.13 43.75 77.58 43.69 77.64"/>
                </g>
              </g>
              <path class="cls-6" d="M66.06,69.75c0-.11,.02-.21,.02-.32s-.01-.21-.02-.32v-16.08h-20.25v16.81c0,.07,.02,.13,.03,.19,.34,4.94,4.72,8.85,10.1,8.85s9.85-3.99,10.11-9c0-.02,0-.03,0-.05v-.1Z"/>
            </g>
          </g>
          <g>
            <path class="cls-9" d="M57.85,65.79v-3.74h-4.01v3.91s0,.03,0,.04c.07,1.11,.94,2,2,2s1.95-.9,2-2.03c0,0,0,0,0-.01v-.02s0-.05,0-.07,0-.05,0-.07Zm-3-3.01c.32,0,.59,.26,.59,.59s-.26,.59-.59,.59-.59-.26-.59-.59,.26-.59,.59-.59Zm0,3.99c-.32,0-.59-.26-.59-.59s.26-.59,.59-.59,.59,.26,.59,.59-.26,.59-.59,.59Zm.41-1.99c0-.32,.26-.59,.59-.59s.59,.26,.59,.59-.26,.59-.59,.59-.59-.26-.59-.59Zm1.59,1.99c-.32,0-.59-.26-.59-.59s.26-.59,.59-.59,.59,.26,.59,.59-.26,.59-.59,.59Zm0-2.81c-.32,0-.59-.26-.59-.59s.26-.59,.59-.59,.59,.26,.59,.59-.26,.59-.59,.59Z"/>
            <path class="cls-9" d="M57.85,74.03v-3.74h-4.01v3.91s0,.03,0,.04c.07,1.11,.94,2,2,2s1.95-.9,2-2.03c0,0,0,0,0-.01v-.02s0-.05,0-.07,0-.05,0-.07Zm-3-3.01c.32,0,.59,.26,.59,.59s-.26,.59-.59,.59-.59-.26-.59-.59,.26-.59,.59-.59Zm0,3.99c-.32,0-.59-.26-.59-.59s.26-.59,.59-.59,.59,.26,.59,.59-.26,.59-.59,.59Zm.41-1.99c0-.32,.26-.59,.59-.59s.59,.26,.59,.59-.26,.59-.59,.59-.59-.26-.59-.59Zm1.59,1.99c-.32,0-.59-.26-.59-.59s.26-.59,.59-.59,.59,.26,.59,.59-.26,.59-.59,.59Zm0-2.81c-.32,0-.59-.26-.59-.59s.26-.59,.59-.59,.59,.26,.59,.59-.26,.59-.59,.59Z"/>
            <path class="cls-9" d="M57.85,57.71v-3.74h-4.01v3.91s0,.03,0,.04c.07,1.11,.94,2,2,2s1.95-.9,2-2.03c0,0,0,0,0-.01v-.02s0-.05,0-.07,0-.05,0-.07Zm-3-3.01c.32,0,.59,.26,.59,.59s-.26,.59-.59,.59-.59-.26-.59-.59,.26-.59,.59-.59Zm0,3.99c-.32,0-.59-.26-.59-.59s.26-.59,.59-.59,.59,.26,.59,.59-.26,.59-.59,.59Zm.41-1.99c0-.32,.26-.59,.59-.59s.59,.26,.59,.59-.26,.59-.59,.59-.59-.26-.59-.59Zm1.59,1.99c-.32,0-.59-.26-.59-.59s.26-.59,.59-.59,.59,.26,.59,.59-.26,.59-.59,.59Zm0-2.81c-.32,0-.59-.26-.59-.59s.26-.59,.59-.59,.59,.26,.59,.59-.26,.59-.59,.59Z"/>
            <path class="cls-9" d="M51.32,65.79v-3.74h-4.01v3.91s0,.03,0,.04c.07,1.11,.94,2,2,2s1.95-.9,2-2.03c0,0,0,0,0-.01v-.02s0-.05,0-.07,0-.05,0-.07Zm-3-3.01c.32,0,.59,.26,.59,.59s-.26,.59-.59,.59-.59-.26-.59-.59,.26-.59,.59-.59Zm0,3.99c-.32,0-.59-.26-.59-.59s.26-.59,.59-.59,.59,.26,.59,.59-.26,.59-.59,.59Zm.41-1.99c0-.32,.26-.59,.59-.59s.59,.26,.59,.59-.26,.59-.59,.59-.59-.26-.59-.59Zm1.59,1.99c-.32,0-.59-.26-.59-.59s.26-.59,.59-.59,.59,.26,.59,.59-.26,.59-.59,.59Zm0-2.81c-.32,0-.59-.26-.59-.59s.26-.59,.59-.59,.59,.26,.59,.59-.26,.59-.59,.59Z"/>
            <path class="cls-9" d="M64.46,65.79v-3.74h-4.01v3.91s0,.03,0,.04c.07,1.11,.94,2,2,2s1.95-.9,2-2.03c0,0,0,0,0-.01v-.02s0-.05,0-.07,0-.05,0-.07Zm-3-3.01c.32,0,.59,.26,.59,.59s-.26,.59-.59,.59-.59-.26-.59-.59,.26-.59,.59-.59Zm0,3.99c-.32,0-.59-.26-.59-.59s.26-.59,.59-.59,.59,.26,.59,.59-.26,.59-.59,.59Zm.41-1.99c0-.32,.26-.59,.59-.59s.59,.26,.59,.59-.26,.59-.59,.59-.59-.26-.59-.59Zm1.59,1.99c-.32,0-.59-.26-.59-.59s.26-.59,.59-.59,.59,.26,.59,.59-.26,.59-.59,.59Zm0-2.81c-.32,0-.59-.26-.59-.59s.26-.59,.59-.59,.59,.26,.59,.59-.26,.59-.59,.59Z"/>
          </g>
        </g>
      </g>
    </g>
  </g>
</svg>