<svg xmlns="http://www.w3.org/2000/svg" viewBox="0 0 1075.84 255.99"><defs><style>.cls-1{fill:#ed6a1b;}.cls-2{fill:#f6a80f;}</style></defs><title>アセット 2</title><g id="レイヤー_2" data-name="レイヤー 2"><g id="レイヤー_1-2" data-name="レイヤー 1"><path class="cls-1" d="M185.87,177.51H123.75v30c0,23.15-11,33.62-35.08,33.62H57.49c-9.74,0-14.62-4.87-14.62-20,0-14.13,8.53-18,13.4-18l18.52.24c5.84,0,8.28-3.41,8.28-8.28V177.51H12.67C4.14,177.51,0,173.13,0,160s4.14-17.54,12.67-17.54h70.4V121.24H25.34c-8.77,0-12.92-4.39-12.92-17.54s4.15-17.79,12.92-17.79H83.07V66.67c-19.73,2-26.55,4.38-46.53,4.38-11,0-20.95-14.37-20.95-24.85,0-7.3,5.12-10,8.77-10.23,63.1-2.19,88.19-9.5,127.89-18a4.65,4.65,0,0,1,1.95-.25c11.45,0,21.93,12.67,21.93,23.88,0,7.06-5.12,10.71-8.53,11.2-20.95,3.66-25.58,6.58-43.85,9V85.91h49.7c8.77,0,13.15,4.63,13.15,17.79s-4.38,17.54-13.15,17.54h-49.7v21.19h62.12c8.53,0,12.91,4.39,12.91,17.54S194.4,177.51,185.87,177.51Z"/><path class="cls-2" d="M577.7,194.87c-3.21-25.65-53.27-51.79-55.29-66.82-.39-3,1.52-7.48,4.05-12.59a16.76,16.76,0,0,0-8.68-21.91C507.53,88.91,499,90.06,495,96.11c-8.68,14-14.24,25.49-12.39,39.29,2.25,16.75,50,53,51.39,63.34.72,5.41-2.48,10.61-21.6,20.2-6.46,3.12-8.68,14-2,24.35,6.93,10.61,15.57,15.22,21.93,11.35C567.15,234.16,580.22,213.6,577.7,194.87Z"/><path class="cls-2" d="M482.29,47.86a33.36,33.36,0,1,0-.94-13.7c-4.94,3.05-10.56,8.25-1.17,12.61a16.39,16.39,0,0,0,2,.79C482.24,47.66,482.26,47.76,482.29,47.86Z"/><path class="cls-2" d="M324.28,154.74c-.25-2.23,1.43-5.61,3.63-9.43,2.64-4.81,1.53-12.94-6.58-16.53C313,125.22,306,126,302.56,130.54,295.11,141,290.27,149.6,291.45,160c1.43,12.61,39.69,40.18,40.58,48,.46,4.08-2.29,8-18.2,15-5.37,2.3-7.45,10.43-2.24,18.29,5.42,8,12.4,11.55,17.71,8.69,29.07-15.14,40.29-30.51,38.68-44.6C366,186.06,325.57,166.05,324.28,154.74Z"/><path class="cls-2" d="M428.26,202.57c-6.31-9.28-15.69-21.55-32.36-38-4.14-3.9-11.06-3.11-17.62,2.63-6.74,5.77-7.84,13.19-4.23,17.57a357.42,357.42,0,0,1,22.83,28.79c-3.45,3.21-7.66,7-12.79,11.39-3.65,3-2.52,8.73,3.75,13.41s13.26,5,16.61,1.79c6.57-6.64,11.68-11.93,15.64-16.14.57-.41,1.14-.84,1.7-1.33a29.13,29.13,0,0,0,5.51-6.54l1-1.18a5.68,5.68,0,0,0,1.28-4.77A10.32,10.32,0,0,0,428.26,202.57Z"/><path class="cls-2" d="M275.75,180.59c-5.26,4.75-13.66,12.8-26.69,26.09l-5.29-4.25c-3.36-2.58-9.41-1.41-14.3,3.63s-5.12,10.44-1.54,12.73c11.33,7.63,18.22,13,22.27,16.2,2.23,1.88,6,4.42,10.68,2.79a7.46,7.46,0,0,0,4.74-2.77l.72-.88a13.51,13.51,0,0,0,1.36-1.63c11.08-13.26,18.87-21.45,23.6-26.37,3.79-3.73,9.51-10.75,2-20.62C287.8,178.25,279.72,176.84,275.75,180.59Z"/><path class="cls-1" d="M414.55,140.22a7.62,7.62,0,0,0-7.53,2,9.12,9.12,0,0,0-2.13,8.7,8,8,0,0,0,5.91,5.67,7.73,7.73,0,0,1,5.82,6.51,7.21,7.21,0,0,0,3.57,4.89,9,9,0,0,0,5,1.23,7.36,7.36,0,0,0,2.05-.38c4.14-1.39,6.24-5.4,5.35-10.22C431,150,423.74,142.55,414.55,140.22Z"/><path class="cls-1" d="M429.4,122.72A8.76,8.76,0,0,0,418.06,128a7.4,7.4,0,0,0,4.32,9.93h0c5.37,2.07,12.37,6.47,15.22,15.64a7.71,7.71,0,0,0,8,5.7,9.07,9.07,0,0,0,2.19-.39,8.23,8.23,0,0,0,5.59-10.49A40.64,40.64,0,0,0,429.4,122.72Z"/><path class="cls-2" d="M301,86.76c0,.84.11,1.69.23,2.54a31.12,31.12,0,1,0,1.83-15.45c-4.92.31-9.8,2.27-4.66,9.9A13.3,13.3,0,0,0,301,86.76Z"/><path class="cls-1" d="M1074.29,76.26c-4.56-4.35-9.24-8.47-14-12.41h0c-22.57-18.67-47.31-33.16-72.62-46C979.9,13.87,972.1,10,964.29,6.26c-8-3.87-15.79-8.89-24.43-4.63C932,5.51,924.46,10.93,917,15.84c-1.61,1.06-3.2,2.15-4.8,3.23h-.08l-.33.26q-9,6-17.87,12.32Q868.33,49.9,844,70.46a5,5,0,0,0-2.32,2.93,2.18,2.18,0,0,0-.09.23s0,.07,0,.11a6.68,6.68,0,0,0,.22,5.3,5.51,5.51,0,0,0,1.17,1.57,4.34,4.34,0,0,0,2.32,1.29,3.87,3.87,0,0,0,1.26.13l8.15.16V226.34c0,8.33,7.76,14.88,17.63,14.88h172.37c9.87,0,17.63-6.55,17.63-14.88V86.57c2.7,0,5.39,0,8.08-.06h.38C1074.77,86.6,1077.8,79.6,1074.29,76.26Zm-39.15,136.2c0,1.79-1.84,3.18-4.21,3.18H885.74c-2.36,0-4.21-1.39-4.21-3.18V91.89c0-1.78,1.85-3.17,4.21-3.17h145.19c2.37,0,4.21,1.39,4.21,3.17Z"/><path class="cls-1" d="M1013.61,122.63H973.19v-6.17h26.87c4.09,0,6.24-1.63,6.24-6.89s-2.15-7.06-6.24-7.06H973.19v-2.36c0-2.18-2.15-5.8-6.88-6h-15c-4.94.19-6.66,3.81-6.66,6v2.36H917.09c-4.09,0-6,1.81-6,7.06s1.93,6.89,6,6.89H944.6v6.17H903.33c-4.09,0-6,1.81-6,7.07s1.93,6.89,6,6.89h110.28c4.08,0,6.23-1.64,6.23-6.89S1017.69,122.63,1013.61,122.63Z"/><path class="cls-1" d="M1005,173.75a6.39,6.39,0,0,0-4.09,1.81l-10.32,7.8-14.4-7.62h17.2c9,0,14.4-3.8,14.4-11.42v-11.6c0-7.61-5.37-11.42-14.4-11.42H924c-9,0-14.4,3.81-14.4,11.42v11.6c0,7.62,5.37,11.42,14.4,11.42h8.6A102.1,102.1,0,0,1,905.26,191a5.12,5.12,0,0,0-3.65,4.9c0,4.89,6.45,10.69,12.25,10.69,6.66,0,25.37-14.68,30.31-19v16.86c0,3.26,3,5.26,7.74,5.8h12.47c5.16-.54,7.74-2.54,7.74-5.8V191.15l24.07,15a8.81,8.81,0,0,0,4.52,1.45c4.51,0,11.39-7.07,11.39-10.69,0-1.82-1.29-3.09-3.44-4.17l-4.51-2.36,9-6.53a4.18,4.18,0,0,0,1.72-2.9C1014.89,177.92,1008.66,173.75,1005,173.75Zm-66-11.24c-1.93,0-2.58-.54-2.58-2.17v-3.81c0-1.63.65-2.18,2.58-2.18h39.55c1.94,0,2.58.55,2.58,2.18v3.81c0,1.63-.64,2.17-2.58,2.17Z"/><path class="cls-1" d="M737.13,90.07c-5.46-6.26-26.25-32.46-26.25-40.58,0-8.81,9.63-13,16.63-13,8.09,0,11.59,4.4,15.53,10.66L752.23,37c2.19-2.32,4.59-3.71,7.66-3.71,5,0,17.28,6.26,17.28,12.29,0,1.85-1.09,3.71-2.84,5.57L759.45,67.35c2.63,2.78,5.47,5.33,8.31,8.11l13.13-14.61c2.19-2.31,4.59-3.7,7.44-3.7,4.81,0,16.19,6,16.19,11.82,0,1.62-.88,3.48-2.63,5.34l-14.65,16A141.28,141.28,0,0,0,808,101.67c2.84,1.16,6.34,4.87,6.34,10.9a21.88,21.88,0,0,1-2.4,9.51c-4.38,9-10.94,11.59-15.54,11.59-10.5,0-42.44-26.44-50.53-34.32Z"/><rect class="cls-1" x="676.74" y="101.88" width="67.41" height="22.2" rx="8.23"/><path class="cls-1" d="M777.5,210.93H751.21l5.58-18.48h1.26c7.57,0,13.51-7.35,13.51-16.7V146.8c0-9.35-5.94-16.7-13.51-16.7H659.37a9.49,9.49,0,0,0-4.32.89l-4.14,2.9a17.75,17.75,0,0,0-5,12.91v28.95c0,9.35,5.94,16.7,13.5,16.7h3.42c2,5.12,4.32,12,6.13,18.48H639.74c-5.94,0-8.82,3.79-8.82,15.14s2.88,15.15,8.82,15.15H777.5c5.94,0,9-3.79,9-15.15S783.44,210.93,777.5,210.93Zm-54.34,2.89H695.67c-1.61-6.7-3.61-14.14-5.82-20.59h39.33Zm17.53-49.4a2.92,2.92,0,0,1-2.74,3.13H679.47a2.91,2.91,0,0,1-2.73-3.13v-6.06a2.91,2.91,0,0,1,2.73-3.14H738a2.92,2.92,0,0,1,2.74,3.14Z"/><path class="cls-1" d="M622.32,132.22c-9.13,0-17.6-10.15-17.6-19.2a10.75,10.75,0,0,1,5.86-9.71A177.11,177.11,0,0,0,634.7,91.39L616,73.07c-2-2-3-4-3-6,0-5.74,11.08-14.35,16.52-14.35,2.6,0,4.78,1.1,7,3.31L656.21,75.5c1.74-1.55,12.6-11.7,12.6-13.91,0-.66-.65-1.32-1.95-1.32H647.74c-6.3,0-9.34-3.1-9.34-13,0-9.71,3-13,9.34-13h37.37c11.95,0,21.94,8.83,21.94,21.19,0,0-3.8,20.34-35,47.46C633.85,130.9,622.32,132.22,622.32,132.22Z"/></g></g></svg>